<?xml version="1.0" encoding="UTF-8" standalone="no"?>
<!-- Created with Inkscape (http://www.inkscape.org/) -->

<svg
   width="107.60944mm"
   height="51.834217mm"
   viewBox="0 0 107.60944 51.834217"
   version="1.1"
   id="svg1"
   inkscape:export-filename="logo.png"
   inkscape:export-xdpi="96"
   inkscape:export-ydpi="96"
   xmlns:inkscape="http://www.inkscape.org/namespaces/inkscape"
   xmlns:sodipodi="http://sodipodi.sourceforge.net/DTD/sodipodi-0.dtd"
   xmlns="http://www.w3.org/2000/svg"
   xmlns:svg="http://www.w3.org/2000/svg">
  <sodipodi:namedview
     id="namedview1"
     pagecolor="#ffffff"
     bordercolor="#000000"
     borderopacity="0.25"
     inkscape:showpageshadow="2"
     inkscape:pageopacity="0.0"
     inkscape:pagecheckerboard="0"
     inkscape:deskcolor="#d1d1d1"
     inkscape:document-units="mm" />
  <defs
     id="defs1" />
  <g
     inkscape:label="Layer 1"
     inkscape:groupmode="layer"
     id="layer1"
     transform="translate(-51.990327,-122.47482)">
    <path
       style="fill:#000000;stroke-width:0.264583"
       d="m 52.586082,173.75093 c -0.5782,-0.62063 -0.65966,-1.11453 -0.55907,-3.3897 0.19634,-4.4409 3.58458,-14.91263 7.99525,-24.71015 0.71359,-1.58512 1.25619,-2.92328 1.20578,-2.97369 -0.0504,-0.0504 -0.72037,0.44499 -1.48879,1.1009 -2.12431,1.81328 -3.64379,2.63713 -4.12589,2.23703 -0.65764,-0.54579 -0.4526,-0.92422 1.06833,-1.97173 1.88449,-1.29789 5.20504,-4.81544 6.81384,-7.21807 1.25114,-1.86849 2.82213,-5.16702 5.13513,-10.78199 0.65939,-1.60073 1.31996,-3.05925 1.46794,-3.24115 0.67332,-0.82768 2.21589,0.0534 1.90166,1.08621 -0.095,0.31209 -1.48582,3.42494 -3.09082,6.91744 -2.68144,5.83487 -5.75033,12.77669 -5.75033,13.00723 0,0.14797 2.07699,-0.18732 3.79165,-0.61208 1.95265,-0.48372 3.98455,-1.38083 6.60388,-2.91573 1.99114,-1.16678 2.07877,-1.19187 2.57969,-0.73855 0.74005,0.66974 0.64441,1.21284 -0.35384,2.00934 -1.43199,1.14258 -2.63291,3.70436 -2.76773,5.90406 -0.10016,1.63424 -0.0441,1.94065 0.45024,2.46187 0.70752,0.74596 1.38438,0.75168 2.68146,0.0227 1.9207,-1.0795 3.48562,-3.61998 3.82914,-6.21621 l 0.1806,-1.36487 -1.06506,-0.70482 c -1.6876,-1.1168 -2.10059,-2.90694 -0.82779,-3.58812 0.7808,-0.41788 2.15954,0.35663 2.86302,1.60831 0.56931,1.01297 0.63661,1.04875 1.97212,1.04875 1.76853,0 4.04499,-0.59524 6.18809,-1.61805 3.00632,-1.43478 3.28781,-0.69244 1.29959,3.42735 -2.10985,4.37183 -2.74602,6.39279 -2.01235,6.39279 1.11659,0 5.64301,-3.90134 8.62168,-7.43105 0.9548,-1.13143 1.89715,-2.11899 2.09412,-2.19457 0.19697,-0.0756 0.60023,0.065 0.896138,0.31233 0.53731,0.44917 0.53677,0.453 -0.417038,2.96329 -0.98829,2.60106 -1.40239,5.36179 -0.9127,6.08483 0.44951,0.66371 1.994068,-0.36593 4.786338,-3.19066 2.90008,-2.9338 4.36713,-5.15915 4.2776,-6.48862 -0.13548,-2.01159 1.31458,-3.7089 2.58689,-3.02798 0.49145,0.26302 0.56968,0.50213 0.50553,1.54527 -0.0665,1.0812 0.004,1.27388 0.56809,1.55516 0.37052,0.18472 1.10134,0.25837 1.72101,0.17344 1.25977,-0.17267 1.81042,0.28294 1.77667,1.47001 -0.0117,0.41193 -0.87594,2.41558 -1.92051,4.45257 -1.24641,2.43059 -1.94666,4.12456 -2.03725,4.92828 -0.14998,1.33066 0.19277,2.0227 1.0018,2.0227 0.87453,0 3.76932,-1.71204 9.24725,-5.46905 2.98318,-2.04599 5.81091,-3.91769 6.28385,-4.15934 1.02849,-0.5255 1.06785,-0.8395 0.21741,-1.73421 -0.92725,-0.97553 -1.98047,-3.21333 -2.17282,-4.61664 -0.26625,-1.94251 0.3201,-3.51484 1.90164,-5.09941 1.01017,-1.0121 1.73082,-1.47595 2.77465,-1.78594 1.47911,-0.43924 3.46943,-0.52168 4.34293,-0.17988 0.29125,0.11397 1.07653,0.0372 1.80579,-0.17661 1.72322,-0.50515 2.97674,-0.24123 4.07617,0.8582 0.76694,0.76694 0.87871,1.05144 0.87871,2.23659 0,0.74683 -0.17435,1.77516 -0.38745,2.28518 -0.51988,1.24424 -2.99631,3.79986 -5.43077,5.60443 -1.09284,0.81008 -2.08487,1.55778 -2.2045,1.66156 -0.11963,0.10378 0.56816,1.06713 1.52842,2.14076 4.28846,4.79476 4.74095,9.39397 1.2661,12.86882 -3.97204,3.97203 -12.00328,3.72185 -14.53393,-0.45275 -0.87111,-1.43699 -1.35232,-3.68954 -1.01514,-4.75189 0.0983,-0.30956 1.0687,-1.16344 2.15656,-1.89752 l 1.97793,-1.33469 -0.66052,1.30346 c -1.8389,3.62889 -0.71702,6.79212 2.73896,7.72272 3.31362,0.89226 7.67058,-1.21061 8.47717,-4.09149 0.40572,-1.44907 -0.12019,-3.46021 -1.35522,-5.18251 -1.22936,-1.71441 -3.42079,-4.21645 -3.693,-4.21645 -0.34445,0 -7.29662,4.26346 -10.84063,6.64809 -5.4956,3.69778 -8.07905,4.49967 -9.59918,2.97954 -1.5212,-1.52119 -1.20524,-4.02428 1.07855,-8.54454 0.83863,-1.65988 1.55915,-3.10244 1.60115,-3.2057 0.042,-0.10326 -0.39406,-0.26297 -0.96905,-0.35491 -0.57499,-0.0919 -1.21959,-0.234 -1.43245,-0.31568 -0.26351,-0.10112 -0.84957,0.51086 -1.83644,1.91765 -2.91874,4.1607 -6.56035,7.50462 -8.621668,7.91688 -1.17652,0.23531 -2.31633,-0.30969 -2.73833,-1.30934 -0.19496,-0.4618 -0.33677,-1.64133 -0.31628,-2.63054 l 0.0372,-1.79334 -2.08931,1.99611 c -4.62274,4.41654 -7.60829,5.24944 -8.34173,2.32716 -0.23406,-0.93256 0.40107,-3.36909 1.4911,-5.72029 0.46119,-0.99478 0.77585,-1.87137 0.69924,-1.94798 -0.0766,-0.0766 -0.7113,0.0601 -1.41041,0.30377 -0.69911,0.24369 -2.11981,0.51129 -3.15711,0.59468 l -1.886,0.15161 -0.16913,1.43904 c -0.093,0.79147 -0.462247,1.92107 -0.7037,2.48686 -0.611952,1.43397 -1.656669,3.42817 -2.89615,4.56125 -1.15511,0.97196 -2.98005,1.59091 -4.08148,1.38428 -1.10433,-0.20717 -2.38844,-1.22348 -2.9722,-2.35235 -0.54225,-1.04861 -0.53096,-3.65814 0.0224,-5.18446 0.23246,-0.64116 0.3702,-1.21822 0.30607,-1.28234 -0.0641,-0.0641 -0.86906,0.18364 -1.78876,0.55059 -0.91969,0.36695 -2.50561,0.83689 -3.52426,1.04431 -1.54034,0.31366 -1.84522,0.46174 -1.81135,0.87975 0.0224,0.27643 0.18208,1.55916 0.35484,2.85051 0.93744,7.00704 -2.68821,17.66553 -7.91688,23.27364 -1.92343,2.063 -3.24831,2.51532 -4.24234,1.44836 z m 3.22661,-3.39431 c 4.16007,-4.75558 7.7901,-14.8109 7.19916,-19.94196 -0.2562,-2.22452 -0.67005,-4.13051 -0.89687,-4.13051 -0.29613,0 -4.24164,10.00543 -5.53895,14.04623 -1.35258,4.21296 -2.29708,7.88041 -2.53218,9.83242 -0.23697,1.9675 0.17754,2.01292 1.76884,0.19382 z m 77.685658,-31.51717 c 4.82376,-3.23908 7.25692,-6.87073 5.30368,-7.91607 -0.66141,-0.35398 -1.31585,-0.14632 -2.0705,0.65696 l -0.59461,0.63293 -0.93937,-0.63748 c -1.08835,-0.73857 -2.07243,-0.8036 -3.4501,-0.22797 -2.53159,1.05776 -3.59373,3.35903 -2.55786,5.54195 0.45313,0.9549 2.15241,3.04438 2.47587,3.04438 0.11144,0 0.93624,-0.49262 1.83289,-1.0947 z m 13.3174,19.64152 c -6.61462,-2.28454 -6.68257,-13.54998 -0.13705,-22.72271 2.91244,-4.08141 7.824,-8.2233 9.33031,-7.86818 0.6368,0.15013 1.60635,1.02129 1.60635,1.44335 0,0.10371 -0.86321,0.77486 -1.91823,1.49144 -4.40323,2.99071 -8.01901,7.77996 -9.87302,13.07725 -0.59324,1.69503 -0.61832,2.47827 -0.0466,1.45672 0.69739,-1.24616 2.76883,-3.10448 4.30166,-3.8591 2.90038,-1.42785 5.95159,-1.04245 7.83675,0.98987 1.40094,1.51029 1.68385,2.39463 1.68385,5.26347 0,2.54384 -0.0435,2.74763 -1.00035,4.68363 -1.57599,3.18879 -4.08458,5.35918 -7.13189,6.1704 -1.84288,0.49059 -2.95325,0.46048 -4.65174,-0.12614 z m 5.11106,-2.54683 c 1.55809,-0.74058 3.7543,-3.05805 4.56447,-4.81651 0.80324,-1.7434 1.07984,-4.29018 0.61795,-5.68971 -0.16492,-0.49971 -0.65417,-1.24802 -1.08722,-1.66291 -1.10517,-1.05882 -3.36686,-1.23528 -5.02043,-0.39169 -3.9041,1.99173 -7.01336,8.61433 -5.31172,11.31377 0.8785,1.39362 2.02281,1.96142 3.72341,1.84754 0.80037,-0.0536 1.93146,-0.32382 2.51354,-0.60049 z"
       id="path1"
       sodipodi:nodetypes="ssssssssssssssssssssscsssssssssssssssssssssssssssssssssssssssscssssssssssssssscsssssscsssssssssssssssssssssscssssssssssssssssssssssssssss" />
  </g>
</svg>
