<svg width="32" height="32" viewBox="0 0 153.94667 153.83807" xmlns="http://www.w3.org/2000/svg"><g transform="translate(-29.34748,-67.863119)"><path fill="#000000" d="m 52.535447,221.29515 c -8.865792,-1.6016 -16.24818,-7.27205 -20.289052,-15.58412 -1.537368,-3.16237 -2.275371,-5.86331 -2.633247,-9.63718 -0.357684,-3.77183 -0.352559,-99.245097 0.0055,-102.678437 0.35813,-3.43391 1.135813,-6.29387 2.49095,-9.16057 3.929154,-8.31185 11.033547,-13.95733 19.993197,-15.88751 2.135416,-0.46003 4.863932,-0.48421 54.635165,-0.48421 52.3875,0 52.3875,0 54.92056,0.70053 3.62358,1.00213 6.19521,2.13998 8.97416,3.97072 6.97428,4.5946 11.46744,12.00159 12.43115,20.49281 0.21286,1.87543 0.27073,17.089807 0.20419,53.681757 -0.1013,55.71344 0.009,51.71301 -1.5469,56.25762 -2.71168,7.92202 -9.49569,14.5919 -17.61959,17.32315 -4.40024,1.47935 -2.29751,1.42848 -58.02503,1.40386 -43.227646,-0.0191 -51.794192,-0.0829 -53.541065,-0.39842 z M 85.675203,205.0847 c 2.212881,-0.84083 5.657249,-3.85195 8.728515,-7.63062 3.945859,-4.8547 9.353752,-14.7471 11.791512,-21.56962 4.6055,-12.88937 5.66097,-22.65206 3.67932,-34.03226 -0.50477,-2.89879 -0.62267,-2.72569 2.28184,-3.35011 7.41238,-1.59352 10.45414,-2.59055 15.60297,-5.11436 3.67153,-1.79968 5.85889,-3.65278 5.89249,-4.99201 0.0254,-1.01255 -0.36367,-1.54919 -1.29212,-1.78221 -0.52224,-0.13108 -1.65396,0.29191 -4.81779,1.80067 -6.38944,3.04698 -10.98617,4.51362 -17.0998,5.4559 -1.89177,0.29158 -3.57711,0.5314 -3.7452,0.53294 -0.33705,0.003 4.11008,-10.10424 8.43879,-19.17949 12.63411,-26.487677 13.16578,-27.634097 13.16578,-28.388377 0,-1.56841 -1.27834,-2.70016 -3.04992,-2.70016 -1.3629,0 -2.17748,0.94219 -3.54561,4.10104 -9.8506,22.743947 -13.48879,29.303197 -20.47234,36.909367 -3.102075,3.37865 -6.228549,6.19451 -10.155,9.14613 -3.195876,2.40242 -3.78754,3.04024 -3.78754,4.08304 0,1.94915 1.713047,2.38044 4.196297,1.05649 1.816116,-0.96827 6.492528,-4.42126 8.569853,-6.32785 0.83674,-0.76798 1.52135,-1.28162 1.52135,-1.14142 0,0.14019 -1.26008,3.0394 -2.800173,6.44269 -9.364354,20.69327 -14.920216,35.49988 -17.958308,47.85967 -1.296352,5.27392 -1.783512,8.48623 -1.825693,12.03854 -0.03533,2.97571 0.0085,3.26901 0.69773,4.67258 1.186902,2.41692 3.254917,3.14604 5.983047,2.10943 z m -1.212633,-8.56794 c 0.495494,-9.18783 7.509762,-30.21507 17.25672,-51.73188 1.13857,-2.51344 2.15933,-4.47798 2.26834,-4.36563 0.25451,0.26229 1.14799,3.8615 1.59423,6.42199 0.48641,2.79101 0.41684,9.33035 -0.13371,12.5677 -0.59136,3.47738 -1.60306,7.57431 -2.67879,10.84792 -2.20031,6.69593 -6.947705,16.27467 -10.71576,21.62103 -2.565804,3.64053 -6.473855,7.61543 -7.48735,7.61543 -0.169739,0 -0.206809,-1.06426 -0.10368,-2.97656 z"/></g></svg>
